<?xml version="1.0" encoding="UTF-8"?>
<svg id="Layer_1" data-name="Layer 1" xmlns="http://www.w3.org/2000/svg" xmlns:xlink="http://www.w3.org/1999/xlink" viewBox="0 0 1191 245">
  <defs>
    <style>
      .cls-1 {
        clip-path: url(#clippath);
      }

      .cls-2 {
        fill: none;
      }
    </style>
    <clipPath id="clippath">
      <path class="cls-2" d="M563,160l.57,.99,3.43,6.01,4,7,2,7-1,15-9,8.15-11,5.85-10,4-16-2-8-2-19-8-3-2-5-9-2-13-2-9,1-10h-154.11v1.02l3.11,6.98,1,5,3,5,2,6-1,9-1,11-4,5-5,2-2,2-3,1h-6l-1.56,1-5.44,1-5,1v2.08l-8-1.08-1-3-7-1-13-1-2-3h-5l-4-3-5-4-2-4-1-5-2-6v-6.21l1-3.79,1-2v-2l-3,1-3,2-1,1-2-2v-3.5l-1-1.5-2-1v-3.44l1-2.56,2-3,3.18-1-52.18-1,1,3,1,2,1,3,1,5v6l-1,2-2,6s-2,6-4,7-12,1-12,1l-8.56-4.96h-7.1l-1.34-3.04-5-4-3-3c-1-1-5-2-5-2l-1-4-1-3-2-2v-2.47l2-2.53-1-3H69v5.79l-8,7.21-12,2-21-2-9-5-5-5-2-7v-4.5l1-3.5,2-6,4-3v-3l-3-2,1-9,4-10,1-13-5-13-4-11v-6l-5-9-1-5-3-5-2-9L0,35v-12.92l1-3.08,4-4,10,1,15,5,16,14,8,4,13,11,1,2h10l10,1,13-2,18-1,20-1,14-11,15-16,16-12,13-5h6.56l3.44,2,5,11,2,12-2,10-2,14-2,9v9l-1,2-1,3v5l-2,4-2,5v2s2,7,2,8v4l1,6v9c0,1,1,4,1,4l-2,13v12l-1,6v2h54l-1-3h-2l-1.27-3.5-.73,2.5-1-10-3,1-1-10-3-5h-5l2-5-3,1,1-10,9-10-8,3v-2l28-29,2-4,2-6,11-10-1-7-4-1-2,1,7-9,5-4-1.5-3.95v-2.06l3.5-1.98,3-2,2-1,3-3,3-3,5-1h5l7-1,4-2,12-1,9-2,18.63-8,7.37-2,9-2,15-1h21.66l28.34,1s11,5,12,5,15,5,15,5l14,2,28,2,4,4,4,3h3l6,14,5,12,15,16,3,7,2,8,14,14,8,13,2,8,2,8-6,19v5l-2.95,4.5s2.95,6.5,2.95,7.5-2,2-2,2h30l-2-4,2-3.34,3,2.34,4-2-2-5,1-6-1-4v-7l6-6s3-3,4-3,3-1,3-1l-2-3-5-14-2-13-7-16-2-12-3-21v-8l4-5,13,2,10,6,34,29,8,1h6l5-2h3l6,2,7-1,7,1,6,1,8-3,4-1,7,2,1-2h16l7,2,2-1,6-2,2-3,28-27,8-7,7-4,6-1h1l3,2s2,6,1,7-3,32-3,32l-7,26-1,9-1,3v4l2,4-3,6,1,4,7,12,5.28,8.6-1.28,3.4,4,4,2,4,6.53,.5,1.47,3.5-4,4-1,1h62l-1-7-3-10-5-5-2-2-2,1-1-5-4-3-1-3-3,1-4,10-4,7-5,6-6,5-1,3,5-27,7-14-1-3-8,18s-2,12-2,14-2,7-2,7l-1-7,4-20-6,16v-13s-3,5-3,6-3,8-3,8l2-14,8-29,3-9,4-5,8-8,27-18.4,15-8.6h3l4-2,3-3-6,2,4-6,4-3-8,1,5-4-4-1,9-2-6-2,3-1-3-5s9,1,10,1-4-4-4-4h8l-1-4,15,5,7,1,11-1,11-4,6-2h29l4,3,12-2,10-1,17,2,18,7,2,1,20-2h5l6,2h6l3,6,8,5-3,4,4.34,4.5,19.66,9.5,19,13,15,14,10,15,8,15,5,11,2,9-7-8-4-11-3.92-3.96-2.08-3.04-4-10,4,12v25l3,8,6,16-5-6,1,7-4.34-7.5,1.34,7.5-7-17-1-12-1,8s1,22,0,22-3-31-3-31l-1,6-4-14-2,2-3,8-1,10-1,2,2,6,1,7h-5l-6-5-5-4,1,6,4,7h-11l6,9,5,10s1,7,1,8,3,17,3,17v12l-2,7-1,7-4-6v3l-3,12-4,3-1,4-2-6-3,1-1,2v1l-3-5-1,3-5-1-6-4-6-4-2-4-5-4-4-4-1-15,1-6-3-9-2,1-2,2v-12l1-3v-7l-3-1,1-11-150,1,1,11-1,24-2,4-2,12-2,12-4,2-2,1-1,7-3-5-1-5-1,5-9,9-5,2-2,3-3-6-2-3,1,3-3,5-2-6-3-1-3-3v-10h-5l-5,4v-3l2-3-1-6v-3l4-12,2-8,2-10,3-10,2-5v-4l-4-1h-71l-1,2-5,1-1,2-5-1-5-2-2,3h-7l-3-3v-3l-158,2-5,1-5-1h-10s-2,5-3,5-4-5-4-5h-33l-7-1Z"/>
    </clipPath>
  </defs>
  <g class="cls-1">
    <image width="1440" height="420" transform="translate(-122.5 -164.5)" xlink:href="hp-hero.png"/>
  </g>
</svg>